<svg xmlns="http://www.w3.org/2000/svg" viewBox="0 0 32 32" width="32" height="32">
  <defs>
    <linearGradient id="synoraGradient" x1="0%" y1="0%" x2="100%" y2="100%">
      <stop offset="0%" style="stop-color:#3b82f6;stop-opacity:1" />
      <stop offset="100%" style="stop-color:#8b5cf6;stop-opacity:1" />
    </linearGradient>
  </defs>
  
  <!-- Background circle -->
  <circle cx="16" cy="16" r="14" fill="url(#synoraGradient)" />
  
  <!-- S letter design -->
  <path d="M10 10 Q10 8 12 8 L20 8 Q22 8 22 10 Q22 12 20 12 L14 12 L14 16 L20 16 Q22 16 22 18 Q22 20 20 20 L12 20 Q10 20 10 18 Q10 16 12 16 L14 16 L14 12 L12 12 Q10 12 10 10 Z" 
        fill="white" 
        stroke="white" 
        stroke-width="0.5" 
        stroke-linejoin="round"/>
  
  <!-- DeFi nodes -->
  <circle cx="8" cy="24" r="1.5" fill="#10a37f" opacity="0.8"/>
  <circle cx="24" cy="24" r="1.5" fill="#10a37f" opacity="0.8"/>
  <circle cx="16" cy="4" r="1.5" fill="#10a37f" opacity="0.8"/>
  
  <!-- Connection lines -->
  <line x1="8" y1="24" x2="16" y2="4" stroke="#10a37f" stroke-width="0.5" opacity="0.4"/>
  <line x1="24" y1="24" x2="16" y2="4" stroke="#10a37f" stroke-width="0.5" opacity="0.4"/>
  <line x1="8" y1="24" x2="24" y2="24" stroke="#10a37f" stroke-width="0.5" opacity="0.4"/>
</svg>
